<svg width="101" height="17" viewBox="0 0 101 17" fill="none" xmlns="http://www.w3.org/2000/svg">
<path d="M7.67841 1.21877C8.01254 0.203118 9.46738 0.203119 9.80151 1.21877L10.9953 4.84764C11.1448 5.30185 11.5733 5.60937 12.0569 5.60937H15.9202C17.0015 5.60937 17.451 6.97592 16.5763 7.60363L13.4508 9.84639C13.0596 10.1271 12.8959 10.6247 13.0453 11.0789L14.2391 14.7078C14.5733 15.7234 13.3963 16.568 12.5215 15.9403L9.39603 13.6975C9.00483 13.4168 8.47509 13.4168 8.08389 13.6975L4.9584 15.9403C4.08364 16.568 2.90665 15.7234 3.24078 14.7078L4.43461 11.0789C4.58404 10.6247 4.42034 10.1271 4.02913 9.84639L0.90365 7.60363C0.0288872 6.97592 0.478456 5.60937 1.55972 5.60937H5.42303C5.90659 5.60937 6.33515 5.30185 6.48458 4.84764L7.67841 1.21877Z" fill="#F59E0B"/>
<path d="M28.4362 1.21877C28.7704 0.203118 30.2252 0.203119 30.5593 1.21877L31.7531 4.84764C31.9026 5.30185 32.3311 5.60937 32.8147 5.60937H36.678C37.7593 5.60937 38.2088 6.97592 37.3341 7.60363L34.2086 9.84639C33.8174 10.1271 33.6537 10.6247 33.8031 11.0789L34.9969 14.7078C35.3311 15.7234 34.1541 16.568 33.2793 15.9403L30.1538 13.6975C29.7626 13.4168 29.2329 13.4168 28.8417 13.6975L25.7162 15.9403C24.8414 16.568 23.6645 15.7234 23.9986 14.7078L25.1924 11.0789C25.3418 10.6247 25.1782 10.1271 24.7869 9.84639L21.6615 7.60363C20.7867 6.97592 21.2363 5.60937 22.3175 5.60937H26.1808C26.6644 5.60937 27.093 5.30185 27.2424 4.84764L28.4362 1.21877Z" fill="#F59E0B"/>
<path d="M49.1901 1.21877C49.5243 0.203118 50.9791 0.203119 51.3132 1.21877L52.5071 4.84764C52.6565 5.30185 53.085 5.60937 53.5686 5.60937H57.4319C58.5132 5.60937 58.9627 6.97592 58.088 7.60363L54.9625 9.84639C54.5713 10.1271 54.4076 10.6247 54.557 11.0789L55.7509 14.7078C56.085 15.7234 54.908 16.568 54.0332 15.9403L50.9077 13.6975C50.5165 13.4168 49.9868 13.4168 49.5956 13.6975L46.4701 15.9403C45.5954 16.568 44.4184 15.7234 44.7525 14.7078L45.9463 11.0789C46.0958 10.6247 45.9321 10.1271 45.5409 9.84639L42.4154 7.60363C41.5406 6.97592 41.9902 5.60937 43.0714 5.60937H46.9348C47.4183 5.60937 47.8469 5.30185 47.9963 4.84764L49.1901 1.21877Z" fill="#F59E0B"/>
<path d="M69.9518 1.21877C70.286 0.203118 71.7408 0.203119 72.0749 1.21877L73.2688 4.84764C73.4182 5.30185 73.8468 5.60937 74.3303 5.60937H78.1936C79.2749 5.60937 79.7245 6.97592 78.8497 7.60363L75.7242 9.84639C75.333 10.1271 75.1693 10.6247 75.3187 11.0789L76.5126 14.7078C76.8467 15.7234 75.6697 16.568 74.795 15.9403L71.6695 13.6975C71.2783 13.4168 70.7485 13.4168 70.3573 13.6975L67.2318 15.9403C66.3571 16.568 65.1801 15.7234 65.5142 14.7078L66.708 11.0789C66.8575 10.6247 66.6938 10.1271 66.3026 9.84639L63.1771 7.60363C62.3023 6.97592 62.7519 5.60937 63.8332 5.60937H67.6965C68.18 5.60937 68.6086 5.30185 68.758 4.84764L69.9518 1.21877Z" fill="#F59E0B"/>
<path d="M90.7058 1.21877C91.0399 0.203118 92.4947 0.203119 92.8288 1.21877L94.0227 4.84764C94.1721 5.30185 94.6007 5.60937 95.0842 5.60937H98.9475C100.029 5.60937 100.478 6.97592 99.6036 7.60363L96.4781 9.84639C96.0869 10.1271 95.9232 10.6247 96.0727 11.0789L97.2665 14.7078C97.6006 15.7234 96.4236 16.568 95.5489 15.9403L92.4234 13.6975C92.0322 13.4168 91.5024 13.4168 91.1112 13.6975L87.9857 15.9403C87.111 16.568 85.934 15.7234 86.2681 14.7078L87.462 11.0789C87.6114 10.6247 87.4477 10.1271 87.0565 9.84639L83.931 7.60363C83.0562 6.97592 83.5058 5.60937 84.5871 5.60937H88.4504C88.9339 5.60937 89.3625 5.30185 89.5119 4.84764L90.7058 1.21877Z" fill="#F59E0B"/>
</svg>
