<svg width="33" height="31" viewBox="0 0 33 31" fill="none" xmlns="http://www.w3.org/2000/svg">
<path d="M32.2256 15.3364L28.7 11.3196L29.1912 6.0023L23.9751 4.81748L21.2442 0.222656L16.3315 2.33223L11.4188 0.222656L8.68795 4.81748L3.47182 5.98785L3.96309 11.3051L0.4375 15.3364L3.96309 19.3533L3.47182 24.685L8.68795 25.8698L11.4188 30.4647L16.3315 28.3406L21.2442 30.4502L23.9751 25.8554L29.1912 24.6706L28.7 19.3533L32.2256 15.3364ZM13.4417 22.561L7.66206 16.7813L9.69939 14.744L13.4417 18.4719L22.9637 8.94992L25.001 11.0017L13.4417 22.561Z" fill="url(#paint0_linear_6064_5960)"/>
<defs>
<linearGradient id="paint0_linear_6064_5960" x1="-0.583997" y1="15.3437" x2="32.2151" y2="15.342" gradientUnits="userSpaceOnUse">
<stop stop-color="#635BFF"/>
<stop offset="1" stop-color="#4C99BE"/>
</linearGradient>
</defs>
</svg>
