<svg width="65" height="47" viewBox="0 0 65 47" fill="none" xmlns="http://www.w3.org/2000/svg">
<path fill-rule="evenodd" clip-rule="evenodd" d="M56.6149 9.49219H64.8557L41.749 46.0102L36.2554 36.4767L29.9535 46.0102L26.3984 41.1625L36.2554 25.6503L41.5875 33.8915L56.6149 9.49219Z" fill="white"/>
<path fill-rule="evenodd" clip-rule="evenodd" d="M39.7839 23.7225L49.7684 9.49219H42.2098L39.0839 14.8579C37.1987 18.1493 38.6088 20.9696 39.7839 23.7225Z" fill="white"/>
<path fill-rule="evenodd" clip-rule="evenodd" d="M32.6269 23.3137L35.1742 19.4545C32.2823 7.80192 25.73 0.0701977 15.6451 0.501549C3.94563 1.28257 -2.07753 13.6803 2.04826 22.5166L14.1361 44.6183C15.1518 46.3054 17.0746 46.3875 18.0899 44.7695L23.3926 34.5862L21.3426 30.594L16.2907 41.0747L5.82473 21.3293C2.23957 14.4567 7.94638 5.19053 15.6451 4.5976C20.1564 3.98998 26.1197 8.34469 28.5972 14.9447L32.6269 23.3134V23.3137Z" fill="white"/>
<path d="M16.8238 22.2296C19.1815 22.2296 21.0929 20.3182 21.0929 17.9605C21.0929 15.6027 19.1815 13.6914 16.8238 13.6914C14.466 13.6914 12.5547 15.6027 12.5547 17.9605C12.5547 20.3182 14.466 22.2296 16.8238 22.2296Z" fill="white"/>
</svg>
