<svg width="20" height="19" viewBox="0 0 20 19" fill="none" xmlns="http://www.w3.org/2000/svg">
<path d="M8.51223 12.9284L8.88031 12.2407L8.51223 12.9284C9.07024 13.2271 9.74733 13.1943 10.2739 12.8433L13.0821 10.9711C13.5596 10.6528 13.8463 10.117 13.8463 9.54322C13.8463 8.96943 13.5596 8.43361 13.0821 8.11532L10.2739 6.24319C9.74733 5.89212 9.07024 5.85939 8.51223 6.15803C7.95422 6.45667 7.60588 7.03819 7.60588 7.67109V11.4154C7.60588 12.0483 7.95422 12.6298 8.51223 12.9284ZM16.9665 9.54322C16.9665 13.2482 13.9631 16.2517 10.2581 16.2517C6.55308 16.2517 3.54959 13.2482 3.54959 9.54322C3.54959 5.83823 6.55308 2.83474 10.2581 2.83474C13.9631 2.83474 16.9665 5.83823 16.9665 9.54322Z" fill="#12141D" stroke="#12141D" stroke-width="1.56011"/>
</svg>
